<svg id="SvgjsSvg1001" width="288" height="288" xmlns="http://www.w3.org/2000/svg" version="1.1" xmlns:xlink="http://www.w3.org/1999/xlink" xmlns:svgjs="http://svgjs.com/svgjs"><defs id="SvgjsDefs1002"></defs><g id="SvgjsG1008" transform="matrix(1,0,0,1,0,0)"><svg xmlns="http://www.w3.org/2000/svg" viewBox="0 0 24 24" width="288" height="288"><path d="M23.499 6.203a3.008 3.008 0 00-2.089-2.089c-1.87-.501-9.4-.501-9.4-.501s-7.509-.01-9.399.501a3.008 3.008 0 00-2.088 2.09A31.258 31.26 0 000 12.01a31.258 31.26 0 00.523 5.785 3.008 3.008 0 002.088 2.089c1.869.502 9.4.502 9.4.502s7.508 0 9.399-.502a3.008 3.008 0 002.089-2.09 31.258 31.26 0 00.5-5.784 31.258 31.26 0 00-.5-5.808zm-13.891 9.4V8.407l6.266 3.604z" fill="#ff0000" class="color000 svgShape"></path></svg></g></svg>